<svg xmlns="http://www.w3.org/2000/svg" viewBox="0 0 64 64" width="64" height="64"><path fill="none" d="M-1-1h66v66H-1z"/><g><path fill="#699635" d="M61 21L42 4A127 127 0 0 1 3 39l-1 6 19 17a127 127 0 0 0 41-33l-1-8"/><path fill="#83bf4f" d="M22 55L4 37A115 115 0 0 0 42 2l19 17a115 115 0 0 1-39 36"/><g fill="#699635"><path d="M21 51L8 39h1v-3A115 115 0 0 0 41 7h3V6l13 12v1a2 2 0 0 0 0 2v1a116 116 0 0 1-32 29h-1l-2-1-1 1M11 39l10 10h4a114 114 0 0 0 30-27 4 4 0 0 1 0-4L44 9h-3a113 113 0 0 1-30 27v3"/><path d="M20 37l3 1-1 1h-1v1h4v2l1 1-1 1-1-1h-3l2-1h1v-1h-5v-3h-1l2-1m23-21h3l-1 1a1 1 0 0 0-1 1v1l1-1h3l1 3-1 2-1-1h-2l1-2h1v-1a1 1 0 0 0-1 0l-2 2-1-1-1-3 1-2v1m-3 20a9 9 0 0 1-12 0c-3-3-2-8 1-11s8-3 11 0a7 7 0 0 1 0 10"/></g><path fill="#ffdd7d" d="M22 25l19 17 6-6-19-17-6 6"/><path fill="#dbb471" d="M41 49l6-5v-8l-6 6v7"/><path fill="#8d9998" d="M12 25l3-2 3-2 2-2 4-1-3 2-3 2-3 2-3 1"/><path fill="#e8e8e8" d="M40 33s5 2 16-1 6 29-15 29c-2 0-2-3 4-8 0 0-9 2-5-4 0 0-6 1-3-4v-9l3-3"/><g fill="#d1d1d1"><path d="M62 35c0 9-7 23-21 23-2 2-1 3 0 3 16 0 23-18 20-26"/><path d="M54 40c-3 10-15 11-15 11 0 3 1 4 2 4 4 0 13-8 13-15m-8 0c-7 10-10 6-10 6-2 4 3 4 4 3 2-3 6-8 6-10"/></g><path fill="#8d9998" d="M41 58l4-4 4-4 4-5c1-1 2-4 1-6l-2 6a32 32 0 0 1-4 5l-4 4a15 15 0 0 0-3 4m-2-7l2-3 2-2 2-3 1-3a7 7 0 0 1-1 3l-3 2-2 3-1 3"/><path fill="#e8e8e8" d="M30 24s-1-5 2-16S2 2 2 23c0 2 3 2 8-4 0 0-2 9 5 5 0 0-1 6 4 3h8l3-3"/><g fill="#d1d1d1"><path d="M29 3C20 2 5 9 5 23c-2 2-3 1-3 0C2 7 21 0 29 3"/><path d="M24 10c-11 3-12 15-12 15-2 0-3-1-3-2 0-5 7-13 15-13m0 8c-10 7-6 10-6 10-4 2-4-3-4-4 3-2 8-6 10-6"/></g><path fill="#8d9998" d="M5 24l4-5 4-4 5-4 6-1-6 2a32 32 0 0 0-4 3l-4 5a17 17 0 0 1-5 4"/></g></svg>